<svg width="611" height="611" viewBox="0 0 611 611" fill="none" xmlns="http://www.w3.org/2000/svg">
<g clip-path="url(#clip0_783_16)">
<path d="M23.5 224.033C23.5 153.84 23.5 118.743 37.1605 91.9336C49.1766 68.3502 68.3502 49.1766 91.9336 37.1605C118.743 23.5 153.84 23.5 224.033 23.5H386.967C457.16 23.5 492.257 23.5 519.066 37.1605C542.649 49.1766 561.823 68.3502 573.839 91.9336C587.5 118.743 587.5 153.84 587.5 224.033V386.967C587.5 457.16 587.5 492.257 573.839 519.066C561.823 542.649 542.649 561.823 519.066 573.839C492.257 587.5 457.16 587.5 386.967 587.5H224.033C153.84 587.5 118.743 587.5 91.9336 573.839C68.3502 561.823 49.1766 542.649 37.1605 519.066C23.5 492.257 23.5 457.16 23.5 386.967V224.033Z" fill="url(#paint0_linear_783_16)"/>
<path fill-rule="evenodd" clip-rule="evenodd" d="M386.967 47H224.033C188.549 47 163.349 47.0183 143.628 48.6295C124.182 50.2183 112.142 53.2382 102.602 58.0992C83.4407 67.8623 67.8623 83.4407 58.0992 102.602C53.2382 112.142 50.2183 124.182 48.6295 143.628C47.0183 163.349 47 188.549 47 224.033V386.967C47 422.451 47.0183 447.651 48.6295 467.372C50.2183 486.818 53.2382 498.858 58.0992 508.398C67.8623 527.559 83.4407 543.137 102.602 552.901C112.142 557.761 124.182 560.781 143.628 562.371C163.349 563.982 188.549 564 224.033 564H386.967C422.451 564 447.651 563.982 467.372 562.371C486.818 560.781 498.858 557.761 508.398 552.901C527.559 543.137 543.137 527.559 552.901 508.398C557.761 498.858 560.781 486.818 562.371 467.372C563.982 447.651 564 422.451 564 386.967V224.033C564 188.549 563.982 163.349 562.371 143.628C560.781 124.182 557.761 112.142 552.901 102.602C543.137 83.4407 527.559 67.8623 508.398 58.0992C498.858 53.2382 486.818 50.2183 467.372 48.6295C447.651 47.0183 422.451 47 386.967 47ZM37.1605 91.9336C23.5 118.743 23.5 153.84 23.5 224.033V386.967C23.5 457.16 23.5 492.257 37.1605 519.066C49.1766 542.649 68.3502 561.823 91.9336 573.839C118.743 587.5 153.84 587.5 224.033 587.5H386.967C457.16 587.5 492.257 587.5 519.066 573.839C542.649 561.823 561.823 542.649 573.839 519.066C587.5 492.257 587.5 457.16 587.5 386.967V224.033C587.5 153.84 587.5 118.743 573.839 91.9336C561.823 68.3502 542.649 49.1766 519.066 37.1605C492.257 23.5 457.16 23.5 386.967 23.5H224.033C153.84 23.5 118.743 23.5 91.9336 37.1605C68.3502 49.1766 49.1766 68.3502 37.1605 91.9336Z" fill="black"/>
<path d="M23.5 224.033C23.5 153.84 23.5 118.743 37.1605 91.9336C49.1766 68.3502 68.3502 49.1766 91.9336 37.1605C118.743 23.5 153.84 23.5 224.033 23.5H386.967C457.16 23.5 492.257 23.5 519.066 37.1605C542.649 49.1766 561.823 68.3502 573.839 91.9336C587.5 118.743 587.5 153.84 587.5 224.033V386.967C587.5 457.16 587.5 492.257 573.839 519.066C561.823 542.649 542.649 561.823 519.066 573.839C492.257 587.5 457.16 587.5 386.967 587.5H224.033C153.84 587.5 118.743 587.5 91.9336 573.839C68.3502 561.823 49.1766 542.649 37.1605 519.066C23.5 492.257 23.5 457.16 23.5 386.967V224.033Z" fill="url(#paint1_linear_783_16)"/>
<path fill-rule="evenodd" clip-rule="evenodd" d="M388.001 3.58146e-06C422.221 -0.000175709 449.34 -0.000317611 471.199 1.78562C493.552 3.61192 512.465 7.4223 529.735 16.2219C557.74 30.491 580.509 53.2596 594.778 81.2646C603.578 98.5347 607.388 117.448 609.214 139.801C611 161.66 611 188.779 611 222.999V388.001C611 422.221 611 449.34 609.214 471.199C607.388 493.552 603.578 512.465 594.778 529.735C580.509 557.74 557.74 580.509 529.735 594.778C512.465 603.578 493.552 607.388 471.199 609.214C449.34 611 422.221 611 388.001 611H222.999C188.779 611 161.66 611 139.801 609.214C117.448 607.388 98.5347 603.578 81.2646 594.778C53.2596 580.509 30.491 557.74 16.2219 529.735C7.42229 512.465 3.61192 493.552 1.78562 471.199C-0.000317611 449.34 -0.00017571 422.221 3.58147e-06 388.001V222.999C-0.00017571 188.779 -0.000317611 161.66 1.78562 139.801C3.61192 117.448 7.4223 98.5347 16.2219 81.2646C30.491 53.2596 53.2596 30.491 81.2646 16.2219C98.5347 7.42229 117.448 3.61192 139.801 1.78562C161.66 -0.000317611 188.779 -0.000175709 222.999 3.58146e-06H388.001ZM37.1605 91.9336C23.5 118.743 23.5 153.84 23.5 224.033V386.967C23.5 457.16 23.5 492.257 37.1605 519.066C49.1766 542.649 68.3502 561.823 91.9336 573.839C118.743 587.5 153.84 587.5 224.033 587.5H386.967C457.16 587.5 492.257 587.5 519.066 573.839C542.649 561.823 561.823 542.649 573.839 519.066C587.5 492.257 587.5 457.16 587.5 386.967V224.033C587.5 153.84 587.5 118.743 573.839 91.9336C561.823 68.3502 542.649 49.1767 519.066 37.1606C492.257 23.5 457.16 23.5 386.967 23.5H224.033C153.84 23.5 118.743 23.5 91.9336 37.1606C68.3502 49.1767 49.1766 68.3502 37.1605 91.9336Z" fill="black"/>
<path fill-rule="evenodd" clip-rule="evenodd" d="M388.001 3.58146e-06C422.221 -0.000175709 449.34 -0.000317611 471.199 1.78562C493.552 3.61192 512.465 7.4223 529.735 16.2219C557.74 30.491 580.509 53.2596 594.778 81.2646C603.578 98.5347 607.388 117.448 609.214 139.801C611 161.66 611 188.779 611 222.999V388.001C611 422.221 611 449.34 609.214 471.199C607.388 493.552 603.578 512.465 594.778 529.735C580.509 557.74 557.74 580.509 529.735 594.778C512.465 603.578 493.552 607.388 471.199 609.214C449.34 611 422.221 611 388.001 611H222.999C188.779 611 161.66 611 139.801 609.214C117.448 607.388 98.5347 603.578 81.2646 594.778C53.2596 580.509 30.491 557.74 16.2219 529.735C7.42229 512.465 3.61192 493.552 1.78562 471.199C-0.000317611 449.34 -0.00017571 422.221 3.58147e-06 388.001V222.999C-0.00017571 188.779 -0.000317611 161.66 1.78562 139.801C3.61192 117.448 7.4223 98.5347 16.2219 81.2646C30.491 53.2596 53.2596 30.491 81.2646 16.2219C98.5347 7.42229 117.448 3.61192 139.801 1.78562C161.66 -0.000317611 188.779 -0.000175709 222.999 3.58146e-06H388.001ZM37.1605 91.9336C23.5 118.743 23.5 153.84 23.5 224.033V386.967C23.5 457.16 23.5 492.257 37.1605 519.066C49.1766 542.649 68.3502 561.823 91.9336 573.839C118.743 587.5 153.84 587.5 224.033 587.5H386.967C457.16 587.5 492.257 587.5 519.066 573.839C542.649 561.823 561.823 542.649 573.839 519.066C587.5 492.257 587.5 457.16 587.5 386.967V224.033C587.5 153.84 587.5 118.743 573.839 91.9336C561.823 68.3502 542.649 49.1767 519.066 37.1606C492.257 23.5 457.16 23.5 386.967 23.5H224.033C153.84 23.5 118.743 23.5 91.9336 37.1606C68.3502 49.1767 49.1766 68.3502 37.1605 91.9336Z" fill="url(#paint2_linear_783_16)"/>
<rect x="288.243" y="185" width="169.257" height="47.8249" rx="23.9125" fill="url(#paint3_linear_783_16)"/>
<rect x="336.199" y="281.587" width="121.301" height="47.8249" rx="23.9125" fill="url(#paint4_linear_783_16)"/>
<path d="M196.41 363.116C187.046 353.777 187.046 338.637 196.41 329.299L264.909 260.987C274.273 251.648 289.455 251.648 298.819 260.987C308.183 270.325 308.183 285.466 298.819 294.804L230.32 363.116C220.956 372.454 205.774 372.454 196.41 363.116Z" fill="url(#paint5_linear_783_16)"/>
<path d="M229.844 363.073C220.48 372.411 205.298 372.411 195.934 363.073L160.523 327.759C151.159 318.421 151.159 303.28 160.523 293.942C169.887 284.603 185.069 284.603 194.433 293.942L229.844 329.255C239.208 338.594 239.208 353.734 229.844 363.073Z" fill="url(#paint6_linear_783_16)"/>
<rect x="289.183" y="378.175" width="168.317" height="47.8249" rx="23.9125" fill="url(#paint7_linear_783_16)"/>
</g>
<defs>
<linearGradient id="paint0_linear_783_16" x1="305.5" y1="-156.667" x2="305.5" y2="587.5" gradientUnits="userSpaceOnUse">
<stop stop-color="#4C4C57"/>
<stop offset="0.444444" stop-color="#05050A"/>
<stop offset="1"/>
</linearGradient>
<linearGradient id="paint1_linear_783_16" x1="305.5" y1="-156.667" x2="305.5" y2="587.5" gradientUnits="userSpaceOnUse">
<stop stop-color="#4C4C57"/>
<stop offset="0.444444" stop-color="#05050A"/>
<stop offset="1"/>
</linearGradient>
<linearGradient id="paint2_linear_783_16" x1="305.5" y1="23.5" x2="305.5" y2="587.5" gradientUnits="userSpaceOnUse">
<stop stop-color="white" stop-opacity="0.6"/>
<stop offset="1" stop-color="white" stop-opacity="0.2"/>
</linearGradient>
<linearGradient id="paint3_linear_783_16" x1="288.25" y1="185" x2="334.362" y2="288.023" gradientUnits="userSpaceOnUse">
<stop stop-color="white"/>
<stop offset="1" stop-color="#929292"/>
</linearGradient>
<linearGradient id="paint4_linear_783_16" x1="336.204" y1="281.587" x2="391.765" y2="370.549" gradientUnits="userSpaceOnUse">
<stop stop-color="white"/>
<stop offset="1" stop-color="#929292"/>
</linearGradient>
<linearGradient id="paint5_linear_783_16" x1="153.506" y1="253.983" x2="301.023" y2="376.138" gradientUnits="userSpaceOnUse">
<stop stop-color="white"/>
<stop offset="1" stop-color="#929292"/>
</linearGradient>
<linearGradient id="paint6_linear_783_16" x1="153.506" y1="253.983" x2="301.023" y2="376.138" gradientUnits="userSpaceOnUse">
<stop stop-color="white"/>
<stop offset="1" stop-color="#929292"/>
</linearGradient>
<linearGradient id="paint7_linear_783_16" x1="289.19" y1="378.175" x2="335.474" y2="481.006" gradientUnits="userSpaceOnUse">
<stop stop-color="white"/>
<stop offset="1" stop-color="#929292"/>
</linearGradient>
<clipPath id="clip0_783_16">
<rect width="611" height="611" fill="white"/>
</clipPath>
</defs>
</svg>
